<?xml version="1.0" encoding="utf-8"?>
<!-- Generator: Adobe Illustrator 24.3.0, SVG Export Plug-In . SVG Version: 6.00 Build 0)  -->
<svg version="1.1" id="Layer_1" xmlns="http://www.w3.org/2000/svg" xmlns:xlink="http://www.w3.org/1999/xlink" x="0px" y="0px"
	 viewBox="0 0 250 150" style="enable-background:new 0 0 250 150;" xml:space="preserve">
<style type="text/css">
	.st0{fill:#FFFFFF;}
</style>
<g>
	<g>
		<path class="st0" d="M92.03,103.9v-0.73c1.38-0.19,1.44-0.42,1.14-1.31c-0.24-0.72-0.62-1.73-0.99-2.77H87.8
			c-0.28,0.78-0.59,1.61-0.83,2.35c-0.46,1.38-0.02,1.55,1.71,1.73v0.73h-5.23v-0.73c1.36-0.17,1.71-0.35,2.45-2.22l4.5-11.26
			l0.92-0.17c1.38,3.74,2.86,7.68,4.25,11.34c0.76,1.97,0.96,2.13,2.41,2.3v0.73H92.03z M90.03,93.13c-0.65,1.67-1.3,3.3-1.88,4.92
			h3.66L90.03,93.13z"/>
		<path class="st0" d="M107.59,100.93c-0.38,1.08-0.76,2.37-0.96,2.97h-7.6l-0.23-0.36c1.83-2.8,3.41-5.45,5.12-8.3
			c-0.05,0-1.44,0-1.47,0c-1.5,0-1.95,0.14-2.84,2.1l-0.69-0.24c0.27-0.92,0.56-2.21,0.76-3.26h0.5c0.14,0.35,0.45,0.48,1.28,0.48
			h5.32l0.19,0.31c-1.68,2.77-3.32,5.47-5.02,8.37h1.71c1.56,0,2.21-0.33,3.27-2.32L107.59,100.93z"/>
		<path class="st0" d="M115.6,104.16c-0.49,0-0.97-0.19-1.23-0.44c-0.3-0.27-0.44-0.57-0.55-0.86c-0.84,0.56-1.9,1.3-2.4,1.3
			c-1.75,0-2.84-1.39-2.84-2.75c0-1.12,0.54-1.7,1.71-2.14c1.29-0.47,2.97-1,3.46-1.42v-0.77c0-1.27-0.54-1.99-1.54-1.99
			c-0.41,0-0.72,0.2-0.92,0.46c-0.25,0.33-0.36,0.78-0.54,1.42c-0.14,0.5-0.43,0.65-0.82,0.65c-0.51,0-1.16-0.49-1.16-1.07
			c0-0.36,0.27-0.63,0.74-0.96c0.85-0.58,2.12-1.27,3.34-1.53c0.79,0,1.5,0.19,2.09,0.61c0.87,0.65,1.16,1.5,1.16,2.61v3.9
			c0,1.02,0.35,1.3,0.72,1.3c0.23,0,0.47-0.08,0.71-0.2l0.23,0.69L115.6,104.16z M113.75,98.69c-0.42,0.22-1.04,0.52-1.49,0.75
			c-0.72,0.35-1.15,0.75-1.15,1.51c0,1.19,0.85,1.65,1.4,1.65c0.39,0,0.86-0.14,1.24-0.5C113.75,101.09,113.75,99.71,113.75,98.69z"
			/>
		<path class="st0" d="M129.44,103.34c-0.5,0.09-2.36,0.35-3.93,0.83c0-0.43,0-0.87,0-1.31c-0.39,0.25-0.94,0.57-1.33,0.82
			c-0.64,0.39-1.06,0.47-1.3,0.47c-1.8,0-4.31-1.63-4.31-4.79c0-2.98,2.63-5.3,5.86-5.3c0.2,0,0.69,0.02,1.08,0.13v-2.73
			c0-1.23-0.12-1.32-1.53-1.47v-0.66c1.31-0.15,2.98-0.44,3.96-0.74c0,0.83,0,1.66,0,2.57v10.09c0,1.15,0.14,1.28,0.95,1.36
			l0.55,0.06V103.34z M125.51,96.08c-0.33-0.66-1.02-1.09-1.85-1.09c-0.8,0-2.39,0.54-2.39,3.67c0,2.76,1.6,3.92,2.71,3.94
			c0.53,0,1.03-0.18,1.52-0.51V96.08z"/>
		<path class="st0" d="M136.8,89.82c2.87,0,4.87,0.59,6.24,1.88c1.09,1.03,1.91,2.54,1.91,4.69c0,2.51-1.04,4.46-2.71,5.72
			c-1.62,1.22-3.69,1.78-6.23,1.78h-5.64v-0.73c1.72-0.15,1.88-0.32,1.88-2.11v-8.37c0-1.83-0.25-1.98-1.88-2.12v-0.73H136.8z
			 M134.87,100.89c0,1.57,0.5,2.06,2.09,2.06c3.26,0,5.06-2.26,5.06-6.24c0-2.16-0.65-3.96-1.89-4.93
			c-0.94-0.81-2.11-1.09-3.56-1.09c-0.86,0-1.28,0.16-1.44,0.3c-0.19,0.17-0.25,0.49-0.25,1.2V100.89z"/>
		<path class="st0" d="M155.08,101.87c-1.34,1.87-3,2.28-3.83,2.28c-2.81,0-4.44-2.15-4.44-4.7c0-1.5,0.65-2.95,1.55-3.86
			c0.95-0.99,2.16-1.54,3.32-1.54c2.04,0,3.5,1.71,3.48,3.47c-0.01,0.39-0.04,0.7-0.33,0.77c-0.42,0.1-3.37,0.27-5.64,0.35
			c0.03,2.51,1.49,3.68,3.04,3.68c0.86,0,1.7-0.33,2.48-1.02L155.08,101.87z M151.21,94.93c-0.91,0-1.73,0.99-1.92,2.71
			c1-0.01,1.96-0.03,3-0.06c0.33-0.01,0.46-0.08,0.46-0.43C152.77,96.04,152.19,94.93,151.21,94.93z"/>
		<path class="st0" d="M166.55,95c-1.17,0.18-1.33,0.4-1.83,1.51c-0.74,1.73-1.91,4.47-3.15,7.62h-0.81
			c-1.02-2.62-2.04-5.18-3.07-7.68c-0.43-1.04-0.63-1.26-1.76-1.45v-0.68H161V95c-1.05,0.18-1.15,0.35-0.86,1.14
			c0.54,1.49,1.37,3.65,1.8,4.76c0.51-1.29,1.24-3.14,1.73-4.6c0.27-0.79,0.22-1.14-1.15-1.3v-0.68h4.03V95z"/>
	</g>
	<path class="st0" d="M136.89,45.83l-3.86,0.01h-11.86v0.74c3.39,0,4.11,1.51,4.11,5.43v11.86l5.04,12.13
		c0.57,1.36,1.01,2.26,1.58,2.84c0.42,0.43,0.92,0.68,1.58,0.78V46.6h1.05c4.17,0,8.99,7.52,8.94,15.77
		c-0.04,7.67-2.13,16.69-8.48,17.92c-0.26,0.05-0.52,0.09-0.79,0.11c-0.24,0.02-0.48,0.02-0.72-0.01c0,0,0,0,0,0
		c-2.08-0.26-2.85-1.67-3.87-4.1l-0.54-1.29l-3.8-9.13l-8.33-20.03h-1.37L104.6,75.01c-1.3,3.44-3.44,5.41-6.28,5.41v0.74h10.27
		v-0.74c-6.23,0.16-2.88-6.24-1.47-10h11.54c0.21,0.57,0.51,1.24,0.83,1.96l0.01,0.01c0.33,0.75,0.69,1.55,0.99,2.35l2.72,6.42
		h13.69c8.55,0,14.8-7.82,14.8-18.81S144.18,45.82,136.89,45.83z M107.39,69.68l5.2-13.83l5.75,13.83H107.39z"/>
</g>
</svg>
