<?xml version="1.0" encoding="utf-8"?>
<!-- Generator: Adobe Illustrator 24.3.0, SVG Export Plug-In . SVG Version: 6.00 Build 0)  -->
<svg version="1.1" id="Layer_1" xmlns="http://www.w3.org/2000/svg" xmlns:xlink="http://www.w3.org/1999/xlink" x="0px" y="0px"
	 viewBox="0 0 250 150" style="enable-background:new 0 0 250 150;" xml:space="preserve">
<style type="text/css">
	.st0{fill:#FFFFFF;}
</style>
<g>
	<g>
		<path class="st0" d="M132.75,74.72l-3.85-10.71l-6.66-18.55l-0.01-0.03h-8.24l-12.69,35.33h7.43l2.33-6.72h14.05l2.32,6.7
			l0.01,0.03h7.48l-0.01-0.04L132.75,74.72z M112.98,68.38l5.11-14.76l3.74,10.81l1.37,3.95H112.98z"/>
		<path class="st0" d="M150.46,53.82c-1.53-2.68-3.71-4.74-6.52-6.19c-2.81-1.45-6.07-2.17-9.78-2.17h-10.51l5.26,14.64v-8.67h5
			c3.71,0,6.57,1.04,8.59,3.11c2.02,2.07,3.03,4.95,3.03,8.62c0,3.67-1.01,6.52-3.03,8.54c-1.98,1.98-4.76,2.99-8.34,3.03l2.13,5.93
			c2.84-0.23,5.39-0.92,7.65-2.09c2.81-1.45,4.99-3.5,6.52-6.14c1.53-2.64,2.3-5.74,2.3-9.28C152.76,59.61,152,56.5,150.46,53.82z"
			/>
	</g>
	<g>
		<path class="st0" d="M82.24,89.24l-5.44,15.14h3.18l1-2.88H87l1,2.88h3.2l-5.44-15.14H82.24z M81.8,99.07l2.19-6.32l2.19,6.32
			H81.8z"/>
		<polygon class="st0" points="101.29,94.83 101.29,92.38 92.59,92.38 92.59,94.87 97.8,94.87 92.56,101.93 92.56,104.37 
			101.35,104.37 101.35,101.88 96.01,101.88 		"/>
		<path class="st0" d="M112.35,94.09c-0.4-0.55-0.94-1-1.61-1.36c-0.67-0.36-1.45-0.54-2.35-0.54c-1.03,0-1.95,0.25-2.78,0.76
			c-0.83,0.51-1.49,1.23-1.97,2.17c-0.48,0.94-0.73,2.01-0.73,3.23c0,1.23,0.24,2.31,0.73,3.26c0.48,0.95,1.14,1.68,1.97,2.2
			c0.83,0.52,1.75,0.78,2.76,0.78c0.89,0,1.69-0.18,2.37-0.55c0.69-0.37,1.22-0.83,1.61-1.4v1.75h3.05v-12h-3.05V94.09z
			 M111.92,100.27c-0.29,0.53-0.68,0.93-1.17,1.21c-0.49,0.28-1.02,0.42-1.58,0.42c-0.55,0-1.06-0.14-1.55-0.43
			c-0.48-0.29-0.87-0.7-1.17-1.25c-0.3-0.54-0.44-1.17-0.44-1.89c0-0.72,0.15-1.35,0.44-1.87c0.3-0.53,0.68-0.93,1.16-1.2
			c0.48-0.27,1-0.41,1.56-0.41c0.56,0,1.09,0.14,1.58,0.42c0.49,0.28,0.88,0.69,1.17,1.21c0.29,0.53,0.43,1.16,0.43,1.89
			S112.21,99.74,111.92,100.27z"/>
		<path class="st0" d="M127.01,94.05c-0.42-0.56-0.98-1.01-1.69-1.35c-0.71-0.34-1.45-0.51-2.23-0.51c-1.03,0-1.96,0.25-2.79,0.76
			c-0.84,0.51-1.5,1.23-1.98,2.17c-0.48,0.94-0.73,2.01-0.73,3.23c0,1.23,0.24,2.31,0.73,3.26c0.48,0.95,1.14,1.68,1.98,2.2
			c0.84,0.52,1.76,0.78,2.77,0.78c0.89,0,1.68-0.18,2.36-0.54c0.68-0.36,1.21-0.84,1.58-1.43v1.78h3.07V88.35h-3.07V94.05z
			 M126.6,100.27c-0.29,0.53-0.68,0.93-1.17,1.21c-0.49,0.28-1.02,0.42-1.58,0.42c-0.55,0-1.06-0.14-1.55-0.43
			c-0.48-0.29-0.87-0.7-1.17-1.25c-0.3-0.54-0.44-1.17-0.44-1.89c0-0.72,0.15-1.35,0.44-1.87c0.3-0.53,0.68-0.93,1.16-1.2
			c0.48-0.27,1-0.41,1.56-0.41c0.56,0,1.09,0.14,1.58,0.42c0.49,0.28,0.88,0.69,1.17,1.21c0.29,0.53,0.43,1.16,0.43,1.89
			S126.89,99.74,126.6,100.27z"/>
		<path class="st0" d="M142.53,90.19c-1.21-0.62-2.6-0.93-4.19-0.93h-5.28v15.11h5.28c1.59,0,2.98-0.31,4.19-0.93
			c1.21-0.62,2.14-1.5,2.79-2.63c0.66-1.13,0.99-2.46,0.99-3.97s-0.33-2.85-0.99-4C144.66,91.7,143.73,90.81,142.53,90.19z
			 M141.91,100.5c-0.87,0.87-2.09,1.3-3.68,1.3h-2.14v-9.98h2.14c1.59,0,2.81,0.44,3.68,1.33c0.87,0.89,1.3,2.12,1.3,3.69
			C143.21,98.41,142.78,99.63,141.91,100.5z"/>
		<path class="st0" d="M156.88,92.92c-0.9-0.49-1.92-0.74-3.06-0.74c-1.18,0-2.23,0.25-3.14,0.76c-0.91,0.51-1.62,1.23-2.12,2.17
			c-0.51,0.94-0.76,2.03-0.76,3.27c0,1.23,0.26,2.31,0.77,3.25c0.51,0.94,1.23,1.66,2.14,2.18c0.92,0.51,1.95,0.77,3.11,0.77
			c1.43,0,2.63-0.37,3.62-1.12c0.98-0.74,1.65-1.69,1.99-2.85h-3.27c-0.48,0.97-1.28,1.45-2.4,1.45c-0.78,0-1.44-0.25-1.97-0.74
			c-0.53-0.49-0.84-1.17-0.91-2.04h8.77c0.06-0.35,0.09-0.74,0.09-1.17c0-1.17-0.25-2.2-0.75-3.11
			C158.49,94.11,157.79,93.41,156.88,92.92z M150.9,97.25c0.12-0.81,0.43-1.44,0.94-1.89c0.51-0.45,1.14-0.68,1.89-0.68
			c0.79,0,1.46,0.23,2.01,0.7c0.55,0.47,0.83,1.09,0.84,1.87H150.9z"/>
		<polygon class="st0" points="169.97,92.38 166.94,101.58 163.91,92.38 160.66,92.38 165.08,104.37 168.76,104.37 173.2,92.38 		
			"/>
	</g>
</g>
</svg>
